<mxfile host="app.diagrams.net" agent="Mozilla/5.0 (Windows NT 10.0; Win64; x64; rv:132.0) Gecko/20100101 Firefox/132.0" version="24.9.0">
  <diagram name="Сторінка-1" id="BStWY_aO_v8bjCKmYqI_">
    <mxGraphModel dx="622" dy="549" grid="1" gridSize="10" guides="1" tooltips="1" connect="1" arrows="1" fold="1" page="1" pageScale="1" pageWidth="827" pageHeight="1169" math="0" shadow="0">
      <root>
        <mxCell id="0" />
        <mxCell id="1" parent="0" />
        <mxCell id="49uNar3mW_wafVYyybKT-13" style="edgeStyle=orthogonalEdgeStyle;rounded=0;orthogonalLoop=1;jettySize=auto;html=1;exitX=0.5;exitY=1;exitDx=0;exitDy=0;entryX=0.5;entryY=0;entryDx=0;entryDy=0;" edge="1" parent="1" source="49uNar3mW_wafVYyybKT-5" target="49uNar3mW_wafVYyybKT-6">
          <mxGeometry relative="1" as="geometry" />
        </mxCell>
        <mxCell id="49uNar3mW_wafVYyybKT-5" value="Start" style="ellipse;whiteSpace=wrap;html=1;" vertex="1" parent="1">
          <mxGeometry x="170" y="60" width="80" height="50" as="geometry" />
        </mxCell>
        <mxCell id="49uNar3mW_wafVYyybKT-14" style="edgeStyle=orthogonalEdgeStyle;rounded=0;orthogonalLoop=1;jettySize=auto;html=1;exitX=0.5;exitY=1;exitDx=0;exitDy=0;entryX=0.5;entryY=0;entryDx=0;entryDy=0;" edge="1" parent="1" source="49uNar3mW_wafVYyybKT-6" target="49uNar3mW_wafVYyybKT-7">
          <mxGeometry relative="1" as="geometry" />
        </mxCell>
        <mxCell id="49uNar3mW_wafVYyybKT-6" value="initializing p, a, b, x, a1, a2, a3, b1, b2" style="rounded=0;whiteSpace=wrap;html=1;" vertex="1" parent="1">
          <mxGeometry x="145" y="130" width="130" height="50" as="geometry" />
        </mxCell>
        <mxCell id="49uNar3mW_wafVYyybKT-15" style="edgeStyle=orthogonalEdgeStyle;rounded=0;orthogonalLoop=1;jettySize=auto;html=1;exitX=0.5;exitY=1;exitDx=0;exitDy=0;" edge="1" parent="1" source="49uNar3mW_wafVYyybKT-7" target="49uNar3mW_wafVYyybKT-10">
          <mxGeometry relative="1" as="geometry" />
        </mxCell>
        <mxCell id="49uNar3mW_wafVYyybKT-7" value="calculating a1, a2, a3, a, b1, b2, b, p" style="rounded=0;whiteSpace=wrap;html=1;" vertex="1" parent="1">
          <mxGeometry x="150" y="200" width="120" height="60" as="geometry" />
        </mxCell>
        <mxCell id="49uNar3mW_wafVYyybKT-16" style="edgeStyle=orthogonalEdgeStyle;rounded=0;orthogonalLoop=1;jettySize=auto;html=1;exitX=0.5;exitY=1;exitDx=0;exitDy=0;entryX=0.5;entryY=0;entryDx=0;entryDy=0;" edge="1" parent="1" source="49uNar3mW_wafVYyybKT-10" target="49uNar3mW_wafVYyybKT-12">
          <mxGeometry relative="1" as="geometry" />
        </mxCell>
        <mxCell id="49uNar3mW_wafVYyybKT-10" value="output p" style="shape=parallelogram;perimeter=parallelogramPerimeter;whiteSpace=wrap;html=1;fixedSize=1;" vertex="1" parent="1">
          <mxGeometry x="150" y="280" width="120" height="40" as="geometry" />
        </mxCell>
        <mxCell id="49uNar3mW_wafVYyybKT-12" value="End" style="ellipse;whiteSpace=wrap;html=1;" vertex="1" parent="1">
          <mxGeometry x="170" y="340" width="80" height="50" as="geometry" />
        </mxCell>
      </root>
    </mxGraphModel>
  </diagram>
</mxfile>
